<mxfile host="app.diagrams.net" modified="2023-03-30T14:27:49.785Z" agent="Mozilla/5.0 (Windows NT 10.0; Win64; x64) AppleWebKit/537.36 (KHTML, like Gecko) Chrome/111.0.0.0 Safari/537.36" version="21.1.2" etag="pgHGrM4xSsicPsDlkznx" type="github">
  <diagram name="PÃ¡gina-1" id="h1pEPFU3bU_1ODZy4Jr5">
    <mxGraphModel>
      <root>
        <mxCell id="0" />
        <mxCell id="1" parent="0" />
      </root>
    </mxGraphModel>
  </diagram>
</mxfile>
